<?xml version="1.0" encoding="utf-8"?>
<!-- Generator: Adobe Illustrator 23.0.1, SVG Export Plug-In . SVG Version: 6.00 Build 0)  -->
<svg version="1.1" id="Layer_3" xmlns="http://www.w3.org/2000/svg" xmlns:xlink="http://www.w3.org/1999/xlink" x="0px" y="0px"
	 viewBox="0 0 718.5 83" style="enable-background:new 0 0 718.5 83;" xml:space="preserve">
<style type="text/css">
	.st0{fill:#FFFFFF;}
	.st1{enable-background:new    ;}
</style>
<g id="Page-1_1_">
	<g id="AB-Logo_1_">
		<polygon id="Path-2_1_" class="st0" points="0,41 43.9,-0.2 43.9,82.1 		"/>
		<polygon id="Path-3_1_" class="st0" points="89.6,20.4 54,-0.2 54,41 54,82.1 89.6,61.5 54,41 		"/>
		<g class="st1">
			<path class="st0" d="M163.2,82.1h-13l-2.2-14.9h-15.8l-2.2,14.9H118L131.2,0H150L163.2,82.1z M133.7,56h12.4L140,14.5L133.7,56z"
				/>
			<path class="st0" d="M169.2,0h20.4c13,0,19.2,7,19.2,20.3v41.5c0,13.2-6.2,20.3-19.2,20.3h-20.4V0z M182.1,11.7v58.6h7.3
				c4.1,0,6.6-2,6.6-8V19.7c0-6-2.5-8-6.6-8H182.1z"/>
			<path class="st0" d="M244,82.1c-0.1-0.6-0.4-1.1-0.5-1.5c-0.4-0.9-0.6-2.2-0.6-4.5c-0.1-1.1-0.1-2.5-0.1-4.1V59.1
				c0-7.6-2.5-10.4-8.4-10.4h-4.5v33.4H217V0h19.5c13.5,0,19.1,6.2,19.1,18.9v6.4c0,8.4-2.8,14-8.4,16.6c6.6,2.7,8.6,8.9,8.6,17.5
				v12.7c0,4.1,0.1,6.8,1.4,10H244z M229.9,11.7v25.2h5c4.8,0,7.7-2.1,7.7-8.7v-8.1c0-6-2-8.4-6.6-8.4H229.9z"/>
			<path class="st0" d="M264.1,0H277v82.1h-12.9V0z"/>
			<path class="st0" d="M328.1,82.1h-13l-2.2-14.9h-15.8l-2.2,14.9H283L296.1,0H315L328.1,82.1z M298.7,56h12.4l-6.2-41.5L298.7,56z
				"/>
			<path class="st0" d="M369.6,0c13.5,0,19.1,6.2,19.1,18.9v2.9c0,8.4-2.6,13.8-8.3,16.5c7,2.7,9.6,8.8,9.6,17.6v6.7
				c0,12.7-6.6,19.5-19.6,19.5h-20.3V0H369.6z M363,11.7v21.7h5c4.8,0,7.7-2.1,7.7-8.7v-4.6c0-6-2-8.4-6.6-8.4H363z M363,45.1v25.2
				h7.4c4.3,0,6.7-2,6.7-8.1v-7.2c0-7.6-2.3-10-8.3-10H363z"/>
			<path class="st0" d="M410.6,34.6h17.7v11.7h-17.7v24h22.3v11.7h-35.2V0h35.2v11.7h-22.3V34.6z"/>
			<path class="st0" d="M467.8,82.1c-0.1-0.6-0.4-1.1-0.5-1.5c-0.4-0.9-0.6-2.2-0.6-4.5c-0.1-1.1-0.1-2.5-0.1-4.1V59.1
				c0-7.6-2.5-10.4-8.4-10.4h-4.5v33.4h-12.9V0h19.5c13.5,0,19.1,6.2,19.1,18.9v6.4c0,8.4-2.8,14-8.4,16.6c6.6,2.7,8.6,8.9,8.6,17.5
				v12.7c0,4.1,0.1,6.8,1.4,10H467.8z M453.8,11.7v25.2h5c4.8,0,7.7-2.1,7.7-8.7v-8.1c0-6-2-8.4-6.6-8.4H453.8z"/>
			<path class="st0" d="M515,82.1c-0.1-0.6-0.4-1.1-0.5-1.5c-0.4-0.9-0.6-2.2-0.6-4.5c-0.1-1.1-0.1-2.5-0.1-4.1V59.1
				c0-7.6-2.5-10.4-8.4-10.4h-4.5v33.4H488V0h19.5c13.5,0,19.1,6.2,19.1,18.9v6.4c0,8.4-2.8,14-8.4,16.6c6.6,2.7,8.6,8.9,8.6,17.5
				v12.7c0,4.1,0.1,6.8,1.4,10H515z M500.9,11.7v25.2h5c4.8,0,7.7-2.1,7.7-8.7v-8.1c0-6-2-8.4-6.6-8.4H500.9z"/>
			<path class="st0" d="M534.1,19.7c0-13.2,6.9-20.6,19.6-20.6c12.7,0,19.6,7.4,19.6,20.6v42.7c0,13.2-6.9,20.6-19.6,20.6
				c-12.7,0-19.6-7.4-19.6-20.6V19.7z M547,63.2c0,6,2.6,8.1,6.7,8.1c4.1,0,6.7-2.1,6.7-8.1V18.9c0-6-2.6-8.1-6.7-8.1
				c-4.1,0-6.7,2.1-6.7,8.1V63.2z"/>
			<path class="st0" d="M619,51.5v10.9c0,13.2-6.6,20.6-19.2,20.6s-19.2-7.4-19.2-20.6V19.7c0-13.2,6.6-20.6,19.2-20.6
				S619,6.4,619,19.7v8h-12.2v-8.8c0-6-2.6-8.1-6.7-8.1c-4.1,0-6.7,2.1-6.7,8.1v44.3c0,6,2.6,8,6.7,8c4.1,0,6.7-2,6.7-8V51.5H619z"
				/>
			<path class="st0" d="M668.6,82.1h-13l-2.2-14.9h-15.8l-2.2,14.9h-11.8L636.6,0h18.9L668.6,82.1z M639.1,56h12.4l-6.2-41.5
				L639.1,56z"/>
			<path class="st0" d="M674.5,0h12.9v70.3h21.2v11.7h-34.1V0z"/>
		</g>
	</g>
</g>
</svg>
