<?xml version="1.0" encoding="utf-8"?>
<!-- Generator: Adobe Illustrator 23.0.1, SVG Export Plug-In . SVG Version: 6.00 Build 0)  -->
<svg version="1.1" id="Layer_2" xmlns="http://www.w3.org/2000/svg" xmlns:xlink="http://www.w3.org/1999/xlink" x="0px" y="0px"
	 viewBox="0 0 500 120" style="enable-background:new 0 0 500 120;" xml:space="preserve">
<style type="text/css">
	.st0{enable-background:new    ;}
</style>
<g class="st0">
	<path d="M78.7,86.8h-8.9l-1.5-10.2H57.5L56,86.8h-8.1l9-56h12.9L78.7,86.8z M58.6,69.1h8.5l-4.2-28.3L58.6,69.1z"/>
	<path d="M82.8,30.8h13.9c8.8,0,13.1,4.9,13.1,13.8V73c0,9-4.3,13.8-13.1,13.8H82.8V30.8z M91.6,38.8v40h5c2.8,0,4.5-1.4,4.5-5.4
		V44.3c0-4-1.7-5.4-4.5-5.4H91.6z"/>
	<path d="M133.8,86.8c-0.5-1.4-0.8-2.3-0.8-6.9v-8.8c0-5.2-1.8-7.1-5.8-7.1h-3v22.8h-8.8v-56h13.3c9.1,0,13,4.2,13,12.9v4.4
		c0,5.8-1.8,9.5-5.8,11.4c4.4,1.8,5.8,6.1,5.8,11.9V80c0,2.7,0.1,4.7,1,6.8H133.8z M124.2,38.8V56h3.4c3.3,0,5.3-1.4,5.3-5.9v-5.5
		c0-4-1.4-5.8-4.5-5.8H124.2z"/>
	<path d="M147.6,30.8h8.8v56h-8.8V30.8z"/>
	<path d="M191.2,86.8h-8.9l-1.5-10.2H170l-1.5,10.2h-8.1l9-56h12.9L191.2,86.8z M171.2,69.1h8.5l-4.2-28.3L171.2,69.1z"/>
	<path d="M234,43.7v2c0,5.8-1.8,9.4-5.7,11.3c4.7,1.8,6.6,6.1,6.6,12v4.6c0,8.6-4.6,13.3-13.4,13.3h-13.8v-56H221
		C230.1,30.8,234,35.1,234,43.7z M216.5,38.8v14.8h3.4c3.3,0,5.3-1.4,5.3-5.9v-3.1c0-4-1.4-5.8-4.5-5.8H216.5z M216.5,61.6v17.2h5
		c3,0,4.6-1.4,4.6-5.5v-4.9c0-5.2-1.7-6.8-5.7-6.8H216.5z"/>
	<path d="M249,54.4h12.1v8H249v16.4h15.2v8h-24v-56h24v8H249V54.4z"/>
	<path d="M288,86.8c-0.5-1.4-0.8-2.3-0.8-6.9v-8.8c0-5.2-1.8-7.1-5.8-7.1h-3v22.8h-8.8v-56h13.3c9.1,0,13,4.2,13,12.9v4.4
		c0,5.8-1.8,9.5-5.8,11.4c4.4,1.8,5.8,6.1,5.8,11.9V80c0,2.7,0.1,4.7,1,6.8H288z M278.4,38.8V56h3.4c3.3,0,5.3-1.4,5.3-5.9v-5.5
		c0-4-1.4-5.8-4.5-5.8H278.4z"/>
	<path d="M320.2,86.8c-0.5-1.4-0.8-2.3-0.8-6.9v-8.8c0-5.2-1.8-7.1-5.8-7.1h-3v22.8h-8.8v-56h13.3c9.1,0,13,4.2,13,12.9v4.4
		c0,5.8-1.8,9.5-5.8,11.4c4.4,1.8,5.8,6.1,5.8,11.9V80c0,2.7,0.1,4.7,1,6.8H320.2z M310.6,38.8V56h3.4c3.3,0,5.3-1.4,5.3-5.9v-5.5
		c0-4-1.4-5.8-4.5-5.8H310.6z"/>
	<path d="M333.2,44.3c0-9,4.7-14.1,13.4-14.1c8.6,0,13.4,5.1,13.4,14.1v29.1c0,9-4.7,14.1-13.4,14.1c-8.6,0-13.4-5.1-13.4-14.1V44.3
		z M342,74c0,4,1.8,5.5,4.6,5.5c2.8,0,4.6-1.5,4.6-5.5V43.7c0-4-1.8-5.5-4.6-5.5c-2.8,0-4.6,1.5-4.6,5.5V74z"/>
	<path d="M391.2,66v7.4c0,9-4.5,14.1-13.1,14.1c-8.6,0-13.1-5.1-13.1-14.1V44.3c0-9,4.5-14.1,13.1-14.1c8.6,0,13.1,5.1,13.1,14.1
		v5.4h-8.3v-6c0-4-1.8-5.5-4.6-5.5c-2.8,0-4.6,1.5-4.6,5.5V74c0,4,1.8,5.4,4.6,5.4c2.8,0,4.6-1.4,4.6-5.4v-8H391.2z"/>
	<path d="M425,86.8h-8.9l-1.5-10.2h-10.8l-1.5,10.2h-8.1l9-56H416L425,86.8z M404.9,69.1h8.5l-4.2-28.3L404.9,69.1z"/>
	<path d="M429.1,30.8h8.8v48h14.5v8h-23.3V30.8z"/>
</g>
</svg>
